<svg id="Capa_1" enable-background="new 0 0 512 512" height="512" viewBox="0 0 512 512" width="512" xmlns="http://www.w3.org/2000/svg"><g><g><g><path d="m462.139 315.774-85.093 22.801c-11.1 2.974-17.687 14.384-14.713 25.484l21.541 80.393 105.191-28.186c15.622-4.186 20.705-23.814 9.078-35.057l-8.216-7.945c-5.524-5.342-7.655-13.293-5.541-20.681l3.143-10.988c4.448-15.55-9.768-30.007-25.39-25.821z" fill="#fb695b"/><path d="m427.661 373.275-47.894-35.429c-6.409 4.973-19.667 17.88-17.43 26.213l-5.603 25.463 15.372 26.26z" fill="#f85647"/></g><g><path d="m49.861 315.774 85.093 22.801c11.1 2.974 17.687 14.384 14.713 25.484l-21.541 80.393-105.191-28.186c-15.622-4.186-20.705-23.814-9.078-35.057l8.216-7.945c5.524-5.342 7.655-13.293 5.541-20.681l-3.143-10.988c-4.448-15.55 9.768-30.007 25.39-25.821z" fill="#f85647"/><path d="m84.339 373.275 47.898-35.428c6.409 4.973 19.664 17.879 17.427 26.212l-3.734 33.814-43.715 8.991z" fill="#f54432"/></g><g><path d="m436.02 206.66c-13.57 20.88-31.81 44.82-54.22 69.43-3.88 4.25-5.78 9.93-5.25 15.66 2.61 27.84 3.85 53.04 3.88 74.5.03 20.75-20.26 35.44-39.98 28.98-8.31-2.73-16.9-5.53-25.83-8.54-80.669-31.723-134.15-113.997-134.15-194.237 0-54.73 31.734-106.403 83.36-145.943 6.18 1.63 11.94 5.23 16.24 10.79 14.81 19.16 31.29 45.23 47.28 74.29 2.91 5.3 8.03 9.04 13.97 10.2 29.84 5.82 57.2 12.35 78.47 19.13 19.21 6.12 27.23 28.84 16.23 45.74z" fill="#f9ee80"/><path d="m314.62 386.69c-15.86-5.34-32.77-11.32-51.02-18.63-4.87-1.95-10.33-1.95-15.2 0-28.53 11.43-53.79 19.6-76.85 27.17-19.72 6.46-40.01-8.23-39.98-28.98.03-21.46 1.27-46.65 3.88-74.5.53-5.73-1.37-11.41-5.25-15.66-22.41-24.61-40.65-48.55-54.23-69.43-10.99-16.9-2.97-39.62 16.24-45.74 21.27-6.78 48.63-13.31 78.47-19.13 5.94-1.16 11.06-4.9 13.97-10.2 15.99-29.06 32.47-55.13 47.28-74.29 7.86-10.17 20.59-13.76 31.9-10.79-30.9 40.33-49.26 90.76-49.26 145.49 0 80.24 39.47 151.26 100.05 194.69z" fill="#f9d171"/><g><g><path d="m256 240.612c14.851 0 28.077 10.08 36.395-7.117 8.438-17.444-10.46-43.329-36.395-43.329s-44.833 25.885-36.395 43.329c8.318 17.198 21.544 7.117 36.395 7.117z" fill="#666667"/></g><g><g><g><ellipse cx="176.443" cy="227.161" fill="#ffa1ac" rx="29.355" ry="23.377"/></g><g><ellipse cx="335.557" cy="227.161" fill="#ffa1ac" rx="29.355" ry="23.377"/></g></g></g></g></g><path d="m460.657 14.406c2.631 7.977 4.993 18.525 6.832 30.072.463 2.908 2.185 5.469 4.702 6.995 9.17 5.557 17.378 11.026 23.461 15.809 5.152 4.051 5.133 11.852-.073 15.833-6.927 5.297-15.824 11.089-26.231 16.614-2.462 1.307-4.272 3.589-4.986 6.284-2.531 9.559-5.191 18.039-7.793 25.092-2.347 6.364-10.224 8.577-15.555 4.383-6.743-5.305-14.149-11.037-22.256-18.24-1.901-1.689-4.386-2.593-6.928-2.522-10.84.306-20.198-.063-28.773-.334-6.78-.214-11.39-6.972-9.098-13.356 2.54-7.075 5.954-15.28 10.159-24.23 1.186-2.523 1.266-5.434.22-8.019-4.42-10.922-7.513-21.078-9.414-29.588-1.429-6.397 3.57-12.384 10.121-12.176 7.734.246 17.537 1.333 28.134 2.97 2.91.45 5.875-.406 8.098-2.335 8.831-7.663 17.421-14.226 24.564-18.645 5.535-3.424 12.777-.788 14.816 5.393z" fill="#f9ee80"/><path d="m51.343 14.406c-2.631 7.977-4.993 18.525-6.832 30.072-.463 2.908-2.185 5.469-4.702 6.995-9.17 5.557-17.378 11.026-23.461 15.809-5.152 4.051-5.133 11.852.073 15.833 6.927 5.297 15.824 11.089 26.231 16.614 2.462 1.307 4.272 3.589 4.986 6.284 2.531 9.559 5.191 18.039 7.793 25.092 2.347 6.364 10.224 8.577 15.555 4.383 6.743-5.305 14.149-11.037 22.256-18.24 1.901-1.689 4.386-2.593 6.928-2.522 10.84.306 20.198-.063 28.773-.334 6.78-.214 11.39-6.972 9.098-13.356-2.54-7.075-5.954-15.28-10.159-24.23-1.186-2.523-1.266-5.434-.22-8.019 4.42-10.922 7.513-21.078 9.414-29.588 1.429-6.397-3.57-12.384-10.121-12.176-7.734.246-17.537 1.333-28.134 2.97-2.91.45-5.875-.406-8.098-2.335-8.831-7.663-17.421-14.226-24.564-18.645-5.535-3.424-12.777-.788-14.816 5.393z" fill="#f9d171"/><g><path d="m429.78 481.193c-48.58 13.27-98.3 20.88-148.19 22.81-39.634-6.568-75.792-30.478-75.792-59.548 0-16.18 25.165-33.27 45.762-44.002 59.42.47 118.89-8.58 176.1-27.17 7.55 23.24 15.1 46.48 22.66 69.72 5.28 16.26-4.05 33.69-20.54 38.19z" fill="#fd7a6e"/><path d="m281.59 504.003c-66.94 2.6-134.19-5-199.37-22.81-16.49-4.5-25.82-21.93-20.54-38.19 7.56-23.24 15.11-46.48 22.66-69.72 54.35 17.66 110.76 26.72 167.22 27.17-9.93 11.25-15.95 26.03-15.95 42.21 0 29.07 19.41 53.6 45.98 61.34z" fill="#fb695b"/></g></g><g><path d="m447.221 145.131c-3.888 0-7.728-1.292-10.843-3.743l-1.888-1.483c-6.181-4.855-13.187-10.358-20.713-17.044-.472-.42-1.131-.652-1.734-.631-10.065.285-18.978-.003-26.84-.258l-2.382-.077c-5.579-.176-10.783-3.036-13.922-7.651-3.182-4.678-3.91-10.414-1.998-15.736 2.716-7.565 6.225-15.938 10.429-24.885.298-.634.318-1.368.057-2.015-4.249-10.5-7.632-21.14-9.781-30.768-1.188-5.313.121-10.766 3.591-14.958 3.482-4.208 8.612-6.533 14.088-6.348 7.745.246 17.516 1.273 29.041 3.054.729.114 1.477-.101 2.036-.588 9.353-8.116 18.183-14.81 25.534-19.358 4.604-2.848 10.153-3.423 15.229-1.576 5.075 1.847 8.959 5.854 10.654 10.996h.001c2.708 8.212 5.169 19.015 7.115 31.242.117.734.549 1.375 1.184 1.76 9.973 6.044 18.117 11.538 24.209 16.328 4.302 3.382 6.748 8.455 6.712 13.917-.036 5.442-2.538 10.461-6.864 13.77-7.84 5.996-17.27 11.972-27.27 17.281-.618.328-1.075.904-1.254 1.581-2.53 9.555-5.225 18.224-8.007 25.767-1.956 5.305-6.2 9.23-11.645 10.77-1.556.437-3.151.653-4.739.653zm-35.101-37.903c4.292 0 8.4 1.559 11.62 4.419 7.187 6.384 13.709 11.507 20.017 16.462l1.896 1.49c.873.688 1.772.572 2.229.442.454-.128 1.272-.497 1.651-1.525 2.62-7.102 5.17-15.316 7.58-24.416 1.245-4.703 4.424-8.708 8.72-10.988 9.284-4.93 17.995-10.444 25.191-15.948.843-.645.974-1.502.977-1.956.003-.465-.12-1.346-.983-2.025-5.537-4.354-13.391-9.641-22.713-15.291-4.413-2.675-7.41-7.132-8.221-12.229-1.823-11.447-4.088-21.441-6.549-28.903-.339-1.027-1.109-1.443-1.539-1.599-.43-.157-1.286-.333-2.207.236-6.681 4.133-14.84 10.333-23.595 17.932-3.898 3.383-9.057 4.873-14.159 4.083-10.771-1.664-20.187-2.662-27.227-2.886-1.107-.031-1.759.561-2.056.919-.289.349-.739 1.089-.508 2.125 1.974 8.838 5.102 18.662 9.047 28.411 1.825 4.509 1.685 9.62-.386 14.023-4.003 8.519-7.329 16.451-9.887 23.573-.371 1.033.019 1.841.284 2.231.268.394.882 1.059 1.991 1.094l2.395.077c8.021.26 16.314.528 25.931.256.167-.005.335-.007.501-.007z"/><path d="m64.779 145.131c-1.587 0-3.182-.215-4.739-.656-5.444-1.538-9.689-5.463-11.646-10.77-2.782-7.544-5.476-16.213-8.006-25.767-.179-.676-.636-1.252-1.253-1.58-10.001-5.311-19.431-11.286-27.269-17.281-4.326-3.309-6.828-8.327-6.865-13.77-.037-5.461 2.409-10.534 6.711-13.917 6.092-4.79 14.237-10.283 24.21-16.328.635-.385 1.066-1.026 1.183-1.761 1.948-12.229 4.408-23.033 7.116-31.242 1.696-5.141 5.579-9.149 10.654-10.997 5.074-1.848 10.626-1.272 15.23 1.576 7.351 4.548 16.18 11.242 25.533 19.358.561.487 1.304.7 2.038.588 11.524-1.78 21.294-2.808 29.041-3.054 5.471-.181 10.604 2.139 14.087 6.347 3.47 4.192 4.779 9.645 3.592 14.96-2.151 9.631-5.534 20.27-9.782 30.767-.262.648-.242 1.383.056 2.016 4.204 8.948 7.713 17.32 10.43 24.885 1.911 5.323 1.183 11.059-1.999 15.736-3.139 4.615-8.343 7.475-13.921 7.65l-2.382.077c-7.861.253-16.768.542-26.839.258-.634-.012-1.264.212-1.736.632-7.528 6.688-14.537 12.193-20.72 17.05l-1.878 1.476c-3.118 2.455-6.958 3.747-10.846 3.747zm-3.901-130.125c-.363 0-.667.08-.873.155-.429.156-1.2.572-1.539 1.599-2.46 7.458-4.725 17.453-6.548 28.903-.812 5.098-3.81 9.555-8.223 12.229-9.321 5.65-17.175 10.937-22.712 15.291-.863.679-.986 1.56-.983 2.025.003.454.134 1.311.978 1.956 7.194 5.502 15.905 11.017 25.191 15.948 4.296 2.281 7.474 6.286 8.719 10.988 2.41 9.099 4.959 17.314 7.579 24.416.379 1.029 1.198 1.397 1.652 1.526.459.13 1.357.244 2.229-.442l1.887-1.483c6.31-4.956 12.835-10.082 20.024-16.469 3.347-2.971 7.652-4.541 12.122-4.412 9.615.272 17.91.004 25.931-.256l2.395-.077c1.109-.035 1.724-.701 1.991-1.094.265-.39.655-1.199.285-2.231-2.558-7.121-5.884-15.053-9.889-23.575-2.068-4.403-2.208-9.514-.384-14.022 3.944-9.745 7.072-19.569 9.046-28.409.231-1.036-.219-1.777-.508-2.126-.297-.358-.962-.957-2.055-.919-7.041.224-16.456 1.222-27.227 2.886-5.098.787-10.261-.7-14.159-4.083-8.756-7.599-16.915-13.799-23.594-17.932-.48-.298-.942-.392-1.335-.392zm-9.535-.595h.01z"/><g><path d="m503.343 375.837-8.218-7.958c-3.542-3.419-4.898-8.483-3.539-13.222l3.14-10.979c2.843-9.933.215-20.264-7.029-27.633-7.243-7.371-17.526-10.177-27.51-7.505l-14.24 3.81c-4.001 1.07-6.377 5.182-5.307 9.184 1.07 4.001 5.18 6.377 9.184 5.307l14.24-3.81c4.692-1.257 9.528.063 12.936 3.53 3.406 3.465 4.642 8.322 3.305 12.993l-3.138 10.974c-2.892 10.078-.002 20.861 7.531 28.136l8.216 7.956c3.492 3.375 4.852 8.199 3.635 12.901-1.217 4.704-4.744 8.263-9.434 9.521l-36.737 9.841c-5.191-15.968-10.382-31.936-15.57-47.904-.482-1.501-1.437-2.774-2.672-3.712l-35.401-26.19 19.311-5.177c4.001-1.072 6.375-5.185 5.303-9.186s-5.19-6.375-9.186-5.302l-25.349 6.795c-.65-11.876-1.576-24.273-2.782-37.132-.335-3.621.876-7.234 3.327-9.919 21.059-23.125 40.064-47.466 54.961-70.388 6.548-10.061 7.995-22.304 3.968-33.59-4.01-11.239-12.832-19.764-24.206-23.387-20.502-6.535-47.928-13.224-79.31-19.345-3.768-.736-6.987-3.086-8.837-6.455-16.575-30.125-33.145-56.15-47.917-75.262-7.227-9.349-18.163-14.71-30.004-14.71s-22.776 5.362-30.003 14.71c-14.77 19.108-31.339 45.133-47.921 75.268-1.846 3.362-5.065 5.713-8.828 6.448-9.307 1.812-18.532 3.733-27.417 5.711-4.043.9-6.591 4.907-5.691 8.951.9 4.043 4.905 6.592 8.951 5.691 8.755-1.949 17.847-3.843 27.028-5.63 8.149-1.591 15.113-6.677 19.103-13.945 16.211-29.461 32.34-54.814 46.643-73.319 4.365-5.646 10.975-8.884 18.136-8.884s13.771 3.238 18.137 8.884c14.306 18.509 30.435 43.862 46.639 73.313 3.994 7.275 10.959 12.36 19.109 13.952 30.825 6.012 57.668 12.552 77.629 18.915 6.876 2.191 12.209 7.343 14.633 14.136 2.439 6.839 1.561 14.263-2.416 20.372-14.464 22.257-32.956 45.932-53.47 68.46-5.285 5.79-7.902 13.593-7.178 21.417 2.522 26.904 3.816 51.738 3.847 73.809.007 5.746-2.044 11.1-5.805 15.287-9.486 1.962-19.017 3.7-28.594 5.158-21.399-7.012-45.586-14.967-72.144-25.607-6.698-2.683-14.077-2.683-20.777 0-26.555 10.639-50.741 18.594-72.141 25.606-9.577-1.458-19.108-3.196-28.594-5.158-3.76-4.187-5.812-9.541-5.805-15.285.031-22.07 1.326-46.904 3.849-73.82.723-7.815-1.894-15.618-7.173-21.4-20.506-22.518-39.001-46.194-53.488-68.469-3.971-6.105-4.847-13.53-2.405-20.37 2.425-6.793 7.759-11.945 14.641-14.137 5.173-1.654 10.878-3.336 16.957-5 3.995-1.094 6.347-5.219 5.253-9.214-1.093-3.995-5.217-6.347-9.214-5.253-6.281 1.72-12.19 3.462-17.557 5.178-11.372 3.623-20.195 12.146-24.208 23.384-4.029 11.286-2.586 23.529 3.958 33.591 14.921 22.942 33.93 47.283 54.978 70.397 2.445 2.679 3.656 6.292 3.322 9.904-1.206 12.864-2.132 25.264-2.782 37.142l-73.402-19.672c-9.983-2.671-20.267.135-27.511 7.505s-9.872 17.7-7.029 27.632l3.142 10.986c1.357 4.732.001 9.797-3.548 13.224l-8.205 7.945c-7.43 7.181-10.321 17.44-7.733 27.444s10.092 17.576 20.075 20.253l36.003 9.644c-.816 2.508-1.629 5.016-2.446 7.525-3.204 9.865-2.254 20.323 2.674 29.448 4.906 9.083 13.083 15.581 23.022 18.293 57.497 15.708 116.617 23.562 175.757 23.56 59.125-.001 118.272-7.855 175.754-23.56 9.94-2.713 18.117-9.209 23.023-18.293 4.929-9.125 5.879-19.583 2.674-29.453-.816-2.509-1.631-5.019-2.447-7.528l35.978-9.637c9.98-2.677 17.483-10.249 20.071-20.253 2.591-10.002-.301-20.262-7.725-27.438zm-115.398-9.582c-.006-4.281-.059-8.664-.157-13.14l23.492 17.379c-8.259 2.431-16.563 4.685-24.916 6.729 1.04-3.502 1.585-7.183 1.581-10.968zm-262.279 10.968c-8.352-2.043-16.656-4.297-24.914-6.728l23.49-17.375c-.098 4.475-.151 8.856-.157 13.136-.004 3.785.541 7.465 1.581 10.967zm-64.016 41.666-36.762-9.848c-4.692-1.258-8.22-4.818-9.437-9.521-1.216-4.703.143-9.526 3.641-12.907l8.203-7.943c7.541-7.282 10.43-18.065 7.541-28.137l-3.141-10.981c-1.336-4.669-.101-9.526 3.305-12.991 3.408-3.467 8.243-4.786 12.934-3.531l67.364 18.049-35.403 26.186c-1.235.938-2.191 2.211-2.673 3.712-5.188 15.97-10.38 31.941-15.572 47.912zm379.945 44.13c-2.938 5.439-7.829 9.328-13.776 10.951-112.395 30.707-231.212 30.707-343.609 0-5.946-1.623-10.838-5.512-13.776-10.951-2.959-5.48-3.53-11.761-1.606-17.683 6.792-20.879 13.575-41.758 20.358-62.637 48.342 15.001 98.461 23.409 149.093 25.003 4.15.153 7.602-3.12 7.732-7.26s-3.12-7.602-7.26-7.732c-10.157-.32-20.293-.932-30.397-1.813 13.453-4.631 27.748-9.808 42.849-15.858 3.058-1.225 6.565-1.225 9.623 0 15.102 6.051 29.397 11.228 42.85 15.859-10.104.881-20.24 1.493-30.397 1.813-4.14.13-7.391 3.592-7.26 7.732.128 4.06 3.459 7.264 7.492 7.264.079 0 .159-.001.24-.004 50.632-1.594 100.75-10.002 149.093-25.003 6.783 20.879 13.566 41.757 20.357 62.633 1.925 5.924 1.354 12.206-1.606 17.686z"/><path d="m256.015 182.682c-16.065 0-31.368 8.488-39.938 22.152-6.695 10.676-7.865 22.318-3.209 31.943 5.548 11.47 13.387 14.265 20.977 14.265 4.019 0 7.968-.784 11.469-1.479 3.554-.706 7.229-1.435 10.7-1.435 3.472 0 7.146.729 10.7 1.435 10.113 2.007 23.959 4.757 32.446-12.785 4.655-9.625 3.485-21.268-3.209-31.943-8.568-13.665-23.871-22.153-39.936-22.153zm29.643 47.564c-3.309 6.842-5.841 6.626-16.021 4.604-4.066-.807-8.676-1.722-13.622-1.722s-9.555.915-13.621 1.722c-10.183 2.023-12.712 2.238-16.022-4.604-2.324-4.806-1.422-11.326 2.414-17.442 4.584-7.311 14.145-15.122 27.23-15.122s22.646 7.812 27.229 15.122c3.835 6.116 4.738 12.636 2.413 17.442z"/><path d="m190.068 181.631c-7.782 0-15.183 3.37-20.304 9.247-2.721 3.123-2.396 7.86.727 10.582 3.122 2.72 7.86 2.396 10.582-.727 2.271-2.606 5.55-4.102 8.996-4.102s6.724 1.495 8.996 4.102c1.483 1.702 3.564 2.573 5.657 2.573 1.748 0 3.503-.607 4.924-1.846 3.123-2.721 3.448-7.459.727-10.582-5.122-5.877-12.523-9.247-20.305-9.247z"/><path d="m312.966 200.732c2.271-2.606 5.55-4.102 8.995-4.102s6.725 1.495 8.996 4.102c1.483 1.702 3.564 2.572 5.657 2.572 1.748 0 3.504-.607 4.925-1.846 3.123-2.722 3.447-7.459.727-10.582-5.122-5.876-12.522-9.247-20.305-9.247s-15.184 3.371-20.304 9.247c-2.722 3.123-2.396 7.861.728 10.582 3.121 2.722 7.86 2.397 10.581-.726z"/></g></g></g></svg>