<svg id="Layer_1" enable-background="new 0 0 100 100" viewBox="0 0 100 100" xmlns="http://www.w3.org/2000/svg"><g fill="#e04f5f"><path d="m75.0344925 78.1526947c-2.1272888 1.861145-2.2601089 5.0515976-.3989639 7.1783905.9308472 1.1965027 2.3929825 1.7283173 3.72229 1.7283173 1.1964951 0 2.5257568-.3989716 3.4561005-1.3293076.5318298-.6646957 1.1965103-1.1965179 1.7283249-1.7283249 18.6103439-18.6103363 18.6103439-48.9186172 0-67.5289612-17.945694-18.0785085-46.791729-18.4773025-65.269146-1.4621296l-5.0516005-5.0516014c-1.5949478-1.7283239-4.3864212-.930295-4.9182329 1.3293104l-5.7162547 23.3958617c-.5318317 2.1267891 1.4621372 4.1207352 3.5889168 3.5889168l23.3958721-5.7162552c2.1268101-.5312843 2.9242649-3.3232746 1.3293114-4.9182262l-5.5828857-5.5828781c14.622415-12.8945332 36.9548277-12.3628074 51.0455221 1.5949496 14.6224136 14.6224136 14.6224136 38.4170685 0 53.0394821z"/><path d="m31.4328289 61.8018799c1.0632343 1.4622116 2.6586208 2.3925552 4.1211948 2.2592773.9302902 0 1.9939384-.2656898 2.7914391-.7975006l14.0906906-8.9061546c1.4626389-.9303017 2.3929787-2.5252533 2.3929787-4.2535744v-21.4018993c0-2.7919922-2.2601585-5.0515976-5.0515976-5.0515976-2.791996 0-5.0516014 2.2601547-5.0516014 5.0515976v18.610342l-11.6979332 7.4440308c-2.3924522 1.4626808-3.0570793 4.6525841-1.5949535 7.0455589z"/><path d="m59.6144333 86.2612381c-2.6586037.7975845-4.2535973 3.589035-3.4560966 6.3804703.6646538 2.2601624 2.6586189 3.72229 4.9182281 3.72229.3989677 0 .9303398 0 1.3293114-.132843.7980232-.265686 1.5954819-.5318146 2.3929749-.797493 2.6586456-.9308548 4.1207962-3.8551178 3.1904602-6.5137405-.9308548-2.6586533-3.8551102-4.1208038-6.5137329-3.1904526l-1.861145.5317993v-.0000305z"/><path d="m42.3332634 86.9260254c-2.7914429-.6646576-5.4500771 1.1960449-6.1151657 4.1207428-.5318375 2.7914429 1.1964951 5.4500885 3.9879341 5.9819031.7974777.1332703 1.728302.2661133 2.5257988.3989639h.7975006c2.5258026 0 4.6526337-1.861145 5.0516014-4.3869476.3990173-2.7914429-1.4621315-5.4501038-4.2535706-5.8490753l-1.993969-.2656784z"/></g></svg>
